<mxfile host="Electron" modified="2024-06-08T14:09:48.861Z" agent="Mozilla/5.0 (Windows NT 10.0; Win64; x64) AppleWebKit/537.36 (KHTML, like Gecko) draw.io/24.5.1 Chrome/124.0.6367.207 Electron/30.0.6 Safari/537.36" etag="4UNtjrYIaYUDTsH00cLE" version="24.5.1" type="device">
  <diagram id="C5RBs43oDa-KdzZeNtuy" name="Page-1">
    <mxGraphModel dx="6538" dy="3324" grid="1" gridSize="10" guides="1" tooltips="1" connect="1" arrows="0" fold="1" page="1" pageScale="1" pageWidth="827" pageHeight="1169" math="0" shadow="0">
      <root>
        <mxCell id="WIyWlLk6GJQsqaUBKTNV-0" />
        <mxCell id="WIyWlLk6GJQsqaUBKTNV-1" parent="WIyWlLk6GJQsqaUBKTNV-0" />
        <mxCell id="xvIKRLz02ojPli87CeRH-2" value="" style="edgeStyle=orthogonalEdgeStyle;rounded=0;orthogonalLoop=1;jettySize=auto;html=1;" parent="WIyWlLk6GJQsqaUBKTNV-1" source="xvIKRLz02ojPli87CeRH-0" target="xvIKRLz02ojPli87CeRH-1" edge="1">
          <mxGeometry relative="1" as="geometry" />
        </mxCell>
        <mxCell id="xvIKRLz02ojPli87CeRH-0" value="" style="rounded=0;whiteSpace=wrap;html=1;" parent="WIyWlLk6GJQsqaUBKTNV-1" vertex="1">
          <mxGeometry x="350" y="200" width="120" height="60" as="geometry" />
        </mxCell>
        <mxCell id="xvIKRLz02ojPli87CeRH-3" value="0" style="edgeStyle=orthogonalEdgeStyle;rounded=0;orthogonalLoop=1;jettySize=auto;html=1;exitX=0;exitY=0.5;exitDx=0;exitDy=0;entryX=0;entryY=0.5;entryDx=0;entryDy=0;" parent="WIyWlLk6GJQsqaUBKTNV-1" source="xvIKRLz02ojPli87CeRH-1" target="xvIKRLz02ojPli87CeRH-0" edge="1">
          <mxGeometry x="-0.8462" relative="1" as="geometry">
            <mxPoint x="315" y="370" as="sourcePoint" />
            <mxPoint x="295" y="230" as="targetPoint" />
            <Array as="points">
              <mxPoint x="225" y="370" />
              <mxPoint x="225" y="230" />
            </Array>
            <mxPoint as="offset" />
          </mxGeometry>
        </mxCell>
        <mxCell id="xvIKRLz02ojPli87CeRH-5" value="1" style="edgeStyle=orthogonalEdgeStyle;rounded=0;orthogonalLoop=1;jettySize=auto;html=1;" parent="WIyWlLk6GJQsqaUBKTNV-1" source="xvIKRLz02ojPli87CeRH-1" target="xvIKRLz02ojPli87CeRH-4" edge="1">
          <mxGeometry x="-0.5" relative="1" as="geometry">
            <mxPoint as="offset" />
          </mxGeometry>
        </mxCell>
        <mxCell id="xvIKRLz02ojPli87CeRH-1" value="start" style="rhombus;whiteSpace=wrap;html=1;rounded=0;" parent="WIyWlLk6GJQsqaUBKTNV-1" vertex="1">
          <mxGeometry x="370" y="330" width="80" height="80" as="geometry" />
        </mxCell>
        <mxCell id="xvIKRLz02ojPli87CeRH-15" value="" style="edgeStyle=orthogonalEdgeStyle;rounded=0;orthogonalLoop=1;jettySize=auto;html=1;" parent="WIyWlLk6GJQsqaUBKTNV-1" source="xvIKRLz02ojPli87CeRH-4" target="xvIKRLz02ojPli87CeRH-14" edge="1">
          <mxGeometry relative="1" as="geometry" />
        </mxCell>
        <mxCell id="xvIKRLz02ojPli87CeRH-4" value="ready = 0&lt;div&gt;r4 = 0&lt;/div&gt;&lt;div&gt;overflow = 0&lt;/div&gt;&lt;div&gt;r1 = min(inA,&amp;nbsp;&lt;span style=&quot;background-color: initial;&quot;&gt;inB)&lt;/span&gt;&lt;/div&gt;&lt;div&gt;r2 =&amp;nbsp;&lt;span style=&quot;background-color: initial;&quot;&gt;max(inA,&amp;nbsp;&lt;/span&gt;&lt;span style=&quot;background-color: initial;&quot;&gt;inB)&lt;/span&gt;&lt;/div&gt;&lt;div&gt;r3 = inC&lt;/div&gt;" style="ellipse;whiteSpace=wrap;html=1;rounded=0;" parent="WIyWlLk6GJQsqaUBKTNV-1" vertex="1">
          <mxGeometry x="530" y="320" width="140" height="100" as="geometry" />
        </mxCell>
        <mxCell id="xvIKRLz02ojPli87CeRH-19" value="" style="edgeStyle=orthogonalEdgeStyle;rounded=0;orthogonalLoop=1;jettySize=auto;html=1;" parent="WIyWlLk6GJQsqaUBKTNV-1" source="xvIKRLz02ojPli87CeRH-14" target="xvIKRLz02ojPli87CeRH-18" edge="1">
          <mxGeometry relative="1" as="geometry" />
        </mxCell>
        <mxCell id="xvIKRLz02ojPli87CeRH-14" value="ready = !(|r1)&lt;div&gt;overflow = r4 &amp;gt; r3&lt;/div&gt;" style="whiteSpace=wrap;html=1;rounded=0;" parent="WIyWlLk6GJQsqaUBKTNV-1" vertex="1">
          <mxGeometry x="540" y="500" width="120" height="60" as="geometry" />
        </mxCell>
        <mxCell id="xvIKRLz02ojPli87CeRH-21" value="1" style="edgeStyle=orthogonalEdgeStyle;rounded=0;orthogonalLoop=1;jettySize=auto;html=1;" parent="WIyWlLk6GJQsqaUBKTNV-1" source="xvIKRLz02ojPli87CeRH-18" target="xvIKRLz02ojPli87CeRH-20" edge="1">
          <mxGeometry x="-0.5556" relative="1" as="geometry">
            <mxPoint as="offset" />
          </mxGeometry>
        </mxCell>
        <mxCell id="xvIKRLz02ojPli87CeRH-24" value="" style="edgeStyle=orthogonalEdgeStyle;rounded=0;orthogonalLoop=1;jettySize=auto;html=1;" parent="WIyWlLk6GJQsqaUBKTNV-1" source="xvIKRLz02ojPli87CeRH-18" target="xvIKRLz02ojPli87CeRH-23" edge="1">
          <mxGeometry relative="1" as="geometry" />
        </mxCell>
        <mxCell id="xvIKRLz02ojPli87CeRH-18" value="overflow" style="rhombus;whiteSpace=wrap;html=1;rounded=0;" parent="WIyWlLk6GJQsqaUBKTNV-1" vertex="1">
          <mxGeometry x="370" y="490" width="80" height="80" as="geometry" />
        </mxCell>
        <mxCell id="xvIKRLz02ojPli87CeRH-22" style="edgeStyle=orthogonalEdgeStyle;rounded=0;orthogonalLoop=1;jettySize=auto;html=1;exitX=0.5;exitY=0;exitDx=0;exitDy=0;" parent="WIyWlLk6GJQsqaUBKTNV-1" source="xvIKRLz02ojPli87CeRH-20" edge="1">
          <mxGeometry relative="1" as="geometry">
            <mxPoint x="225" y="370" as="targetPoint" />
          </mxGeometry>
        </mxCell>
        <mxCell id="xvIKRLz02ojPli87CeRH-20" value="r5 = r3" style="ellipse;whiteSpace=wrap;html=1;rounded=0;" parent="WIyWlLk6GJQsqaUBKTNV-1" vertex="1">
          <mxGeometry x="170" y="490" width="110" height="80" as="geometry" />
        </mxCell>
        <mxCell id="xvIKRLz02ojPli87CeRH-25" value="1" style="edgeStyle=orthogonalEdgeStyle;rounded=0;orthogonalLoop=1;jettySize=auto;html=1;exitX=0;exitY=0.5;exitDx=0;exitDy=0;entryX=0.5;entryY=1;entryDx=0;entryDy=0;" parent="WIyWlLk6GJQsqaUBKTNV-1" source="xvIKRLz02ojPli87CeRH-23" target="xvIKRLz02ojPli87CeRH-26" edge="1">
          <mxGeometry x="-0.913" relative="1" as="geometry">
            <mxPoint x="40" y="560" as="targetPoint" />
            <mxPoint as="offset" />
          </mxGeometry>
        </mxCell>
        <mxCell id="xvIKRLz02ojPli87CeRH-29" value="" style="edgeStyle=orthogonalEdgeStyle;rounded=0;orthogonalLoop=1;jettySize=auto;html=1;" parent="WIyWlLk6GJQsqaUBKTNV-1" source="xvIKRLz02ojPli87CeRH-23" target="xvIKRLz02ojPli87CeRH-28" edge="1">
          <mxGeometry relative="1" as="geometry" />
        </mxCell>
        <mxCell id="xvIKRLz02ojPli87CeRH-23" value="ready" style="rhombus;whiteSpace=wrap;html=1;rounded=0;" parent="WIyWlLk6GJQsqaUBKTNV-1" vertex="1">
          <mxGeometry x="370" y="650" width="80" height="80" as="geometry" />
        </mxCell>
        <mxCell id="xvIKRLz02ojPli87CeRH-27" style="edgeStyle=orthogonalEdgeStyle;rounded=0;orthogonalLoop=1;jettySize=auto;html=1;exitX=0.5;exitY=0;exitDx=0;exitDy=0;" parent="WIyWlLk6GJQsqaUBKTNV-1" source="xvIKRLz02ojPli87CeRH-26" edge="1">
          <mxGeometry relative="1" as="geometry">
            <mxPoint x="230" y="230" as="targetPoint" />
            <Array as="points">
              <mxPoint x="45" y="230" />
            </Array>
          </mxGeometry>
        </mxCell>
        <mxCell id="xvIKRLz02ojPli87CeRH-26" value="r5 = r4" style="ellipse;whiteSpace=wrap;html=1;rounded=0;" parent="WIyWlLk6GJQsqaUBKTNV-1" vertex="1">
          <mxGeometry x="-10" y="490" width="110" height="80" as="geometry" />
        </mxCell>
        <mxCell id="xvIKRLz02ojPli87CeRH-30" value="" style="edgeStyle=orthogonalEdgeStyle;rounded=0;orthogonalLoop=1;jettySize=auto;html=1;" parent="WIyWlLk6GJQsqaUBKTNV-1" source="xvIKRLz02ojPli87CeRH-28" target="xvIKRLz02ojPli87CeRH-14" edge="1">
          <mxGeometry relative="1" as="geometry" />
        </mxCell>
        <mxCell id="xvIKRLz02ojPli87CeRH-28" value="r4 += r2&lt;div&gt;r1--&lt;/div&gt;" style="ellipse;whiteSpace=wrap;html=1;rounded=0;" parent="WIyWlLk6GJQsqaUBKTNV-1" vertex="1">
          <mxGeometry x="540" y="650" width="120" height="80" as="geometry" />
        </mxCell>
        <mxCell id="xvIKRLz02ojPli87CeRH-31" value="ready &amp;lt;= 0&lt;div&gt;r4 &amp;lt;= 0&lt;/div&gt;&lt;div&gt;overflow &amp;lt;= 0&lt;/div&gt;&lt;div&gt;r1 &amp;lt;= inA&lt;/div&gt;&lt;div&gt;r2 &amp;lt;= inB&lt;/div&gt;&lt;div&gt;r3 &amp;lt;= inC&lt;/div&gt;&lt;div&gt;ready &amp;lt;= !(|r1)&lt;/div&gt;&lt;div&gt;overflow &amp;lt;= r4 &amp;gt; r3&lt;/div&gt;&lt;div&gt;r4 &amp;lt;= r4 + r2&lt;/div&gt;&lt;div&gt;r1--&lt;/div&gt;&lt;div&gt;r5 &amp;lt;= r3&lt;/div&gt;&lt;div&gt;r5 &amp;lt;= r3&lt;/div&gt;&lt;div&gt;&lt;br&gt;&lt;/div&gt;&lt;div&gt;&lt;br&gt;&lt;/div&gt;&lt;div&gt;&lt;br&gt;&lt;/div&gt;&lt;div&gt;&lt;br&gt;&lt;/div&gt;&lt;div&gt;register for ready, overflow, r1 ~ r4 and state&lt;/div&gt;&lt;div&gt;reduction or, not&lt;/div&gt;&lt;div&gt;adder, decrement&lt;/div&gt;&lt;div&gt;2x1 mux for r5 and r1&lt;/div&gt;&lt;div&gt;comparator&lt;/div&gt;&lt;div&gt;&lt;br&gt;&lt;/div&gt;&lt;div&gt;&lt;br&gt;&lt;/div&gt;" style="text;html=1;align=center;verticalAlign=middle;whiteSpace=wrap;rounded=0;" parent="WIyWlLk6GJQsqaUBKTNV-1" vertex="1">
          <mxGeometry x="-350" y="240" width="250" height="385" as="geometry" />
        </mxCell>
        <mxCell id="ueNMiougwcr-YQPmRMaQ-2" value="start" style="edgeStyle=orthogonalEdgeStyle;rounded=0;orthogonalLoop=1;jettySize=auto;html=1;exitX=0.5;exitY=0;exitDx=0;exitDy=0;entryX=0.5;entryY=0;entryDx=0;entryDy=0;curved=1;" parent="WIyWlLk6GJQsqaUBKTNV-1" source="ueNMiougwcr-YQPmRMaQ-0" target="ueNMiougwcr-YQPmRMaQ-1" edge="1">
          <mxGeometry relative="1" as="geometry">
            <Array as="points">
              <mxPoint x="90" y="1030" />
              <mxPoint x="610" y="1030" />
            </Array>
          </mxGeometry>
        </mxCell>
        <mxCell id="ueNMiougwcr-YQPmRMaQ-0" value="&lt;font style=&quot;font-size: 14px;&quot;&gt;en = 0&lt;/font&gt;&lt;div style=&quot;font-size: 14px;&quot;&gt;&lt;font style=&quot;font-size: 14px;&quot;&gt;sel_r5 = 0&lt;/font&gt;&lt;/div&gt;&lt;div style=&quot;font-size: 14px;&quot;&gt;&lt;font style=&quot;font-size: 14px;&quot;&gt;reset_regs = ~start&lt;/font&gt;&lt;/div&gt;&lt;div style=&quot;font-size: 14px;&quot;&gt;&lt;font style=&quot;font-size: 14px;&quot;&gt;sel_r1 = reset_regs&lt;/font&gt;&lt;/div&gt;" style="ellipse;whiteSpace=wrap;html=1;fontSize=11;" parent="WIyWlLk6GJQsqaUBKTNV-1" vertex="1">
          <mxGeometry x="-20" y="1100" width="220" height="140" as="geometry" />
        </mxCell>
        <mxCell id="ueNMiougwcr-YQPmRMaQ-3" value="cmp_res / nor_res" style="edgeStyle=orthogonalEdgeStyle;rounded=0;orthogonalLoop=1;jettySize=auto;html=1;exitX=0.5;exitY=1;exitDx=0;exitDy=0;entryX=0.5;entryY=1;entryDx=0;entryDy=0;curved=1;" parent="WIyWlLk6GJQsqaUBKTNV-1" source="ueNMiougwcr-YQPmRMaQ-1" target="ueNMiougwcr-YQPmRMaQ-0" edge="1">
          <mxGeometry relative="1" as="geometry">
            <Array as="points">
              <mxPoint x="610" y="1310" />
              <mxPoint x="90" y="1310" />
            </Array>
            <mxPoint as="offset" />
          </mxGeometry>
        </mxCell>
        <mxCell id="ueNMiougwcr-YQPmRMaQ-1" value="&lt;font style=&quot;font-size: 14px;&quot;&gt;reset_regs = 1&lt;/font&gt;&lt;div style=&quot;font-size: 14px;&quot;&gt;&lt;font style=&quot;font-size: 14px;&quot;&gt;sel_r1 = 1&lt;/font&gt;&lt;/div&gt;&lt;div style=&quot;font-size: 14px;&quot;&gt;&lt;font style=&quot;font-size: 14px;&quot;&gt;en = ~(cmp_res &amp;amp; nor_res)&lt;/font&gt;&lt;/div&gt;&lt;div style=&quot;font-size: 14px;&quot;&gt;&lt;font style=&quot;font-size: 14px;&quot;&gt;sel_r5 = ~cmp_res &amp;amp; nor_res&lt;/font&gt;&lt;/div&gt;" style="ellipse;whiteSpace=wrap;html=1;" parent="WIyWlLk6GJQsqaUBKTNV-1" vertex="1">
          <mxGeometry x="510" y="1100" width="200" height="140" as="geometry" />
        </mxCell>
        <mxCell id="oBKa0gRB3cMWq6xHX9_Q-26" style="edgeStyle=orthogonalEdgeStyle;rounded=0;orthogonalLoop=1;jettySize=auto;html=1;exitX=1;exitY=0.25;exitDx=0;exitDy=0;entryX=0;entryY=0.5;entryDx=0;entryDy=0;strokeColor=default;align=center;verticalAlign=middle;fontFamily=Helvetica;fontSize=11;fontColor=default;labelBackgroundColor=default;endArrow=classic;" edge="1" parent="WIyWlLk6GJQsqaUBKTNV-1" source="oBKa0gRB3cMWq6xHX9_Q-1" target="oBKa0gRB3cMWq6xHX9_Q-9">
          <mxGeometry relative="1" as="geometry" />
        </mxCell>
        <mxCell id="oBKa0gRB3cMWq6xHX9_Q-1" value="Register" style="rounded=0;whiteSpace=wrap;html=1;" vertex="1" parent="WIyWlLk6GJQsqaUBKTNV-1">
          <mxGeometry x="-420" y="2044" width="90" height="120" as="geometry" />
        </mxCell>
        <mxCell id="oBKa0gRB3cMWq6xHX9_Q-3" value="min" style="triangle;whiteSpace=wrap;html=1;" vertex="1" parent="WIyWlLk6GJQsqaUBKTNV-1">
          <mxGeometry x="-920" y="2170" width="60" height="80" as="geometry" />
        </mxCell>
        <mxCell id="oBKa0gRB3cMWq6xHX9_Q-20" style="edgeStyle=orthogonalEdgeStyle;rounded=0;orthogonalLoop=1;jettySize=auto;html=1;exitX=1;exitY=0.5;exitDx=0;exitDy=0;entryX=0;entryY=0.25;entryDx=0;entryDy=0;strokeColor=default;align=center;verticalAlign=middle;fontFamily=Helvetica;fontSize=11;fontColor=default;labelBackgroundColor=default;endArrow=classic;" edge="1" parent="WIyWlLk6GJQsqaUBKTNV-1" source="oBKa0gRB3cMWq6xHX9_Q-4" target="oBKa0gRB3cMWq6xHX9_Q-10">
          <mxGeometry relative="1" as="geometry" />
        </mxCell>
        <mxCell id="oBKa0gRB3cMWq6xHX9_Q-4" value="mux" style="triangle;whiteSpace=wrap;html=1;" vertex="1" parent="WIyWlLk6GJQsqaUBKTNV-1">
          <mxGeometry x="-690" y="2240" width="60" height="80" as="geometry" />
        </mxCell>
        <mxCell id="oBKa0gRB3cMWq6xHX9_Q-15" style="edgeStyle=orthogonalEdgeStyle;rounded=0;orthogonalLoop=1;jettySize=auto;html=1;exitX=1;exitY=0.5;exitDx=0;exitDy=-5;exitPerimeter=0;entryX=0;entryY=0.25;entryDx=0;entryDy=0;" edge="1" parent="WIyWlLk6GJQsqaUBKTNV-1" source="oBKa0gRB3cMWq6xHX9_Q-5" target="oBKa0gRB3cMWq6xHX9_Q-1">
          <mxGeometry relative="1" as="geometry" />
        </mxCell>
        <mxCell id="oBKa0gRB3cMWq6xHX9_Q-5" value="Mux" style="shadow=0;dashed=0;align=center;html=1;strokeWidth=1;shape=mxgraph.electrical.abstract.mux2;whiteSpace=wrap;" vertex="1" parent="WIyWlLk6GJQsqaUBKTNV-1">
          <mxGeometry x="-680" y="2020" width="80" height="120" as="geometry" />
        </mxCell>
        <mxCell id="oBKa0gRB3cMWq6xHX9_Q-6" value="compartor" style="rounded=0;whiteSpace=wrap;html=1;" vertex="1" parent="WIyWlLk6GJQsqaUBKTNV-1">
          <mxGeometry x="-80" y="2530" width="90" height="120" as="geometry" />
        </mxCell>
        <mxCell id="oBKa0gRB3cMWq6xHX9_Q-21" style="edgeStyle=orthogonalEdgeStyle;rounded=0;orthogonalLoop=1;jettySize=auto;html=1;exitX=1;exitY=0.5;exitDx=0;exitDy=0;entryX=0;entryY=0.25;entryDx=0;entryDy=0;strokeColor=default;align=center;verticalAlign=middle;fontFamily=Helvetica;fontSize=11;fontColor=default;labelBackgroundColor=default;endArrow=classic;" edge="1" parent="WIyWlLk6GJQsqaUBKTNV-1" source="oBKa0gRB3cMWq6xHX9_Q-7" target="oBKa0gRB3cMWq6xHX9_Q-12">
          <mxGeometry relative="1" as="geometry" />
        </mxCell>
        <mxCell id="oBKa0gRB3cMWq6xHX9_Q-7" value="adder" style="rounded=0;whiteSpace=wrap;html=1;" vertex="1" parent="WIyWlLk6GJQsqaUBKTNV-1">
          <mxGeometry x="-705" y="2640" width="90" height="120" as="geometry" />
        </mxCell>
        <mxCell id="oBKa0gRB3cMWq6xHX9_Q-8" value="decrementer" style="rounded=0;whiteSpace=wrap;html=1;" vertex="1" parent="WIyWlLk6GJQsqaUBKTNV-1">
          <mxGeometry x="-950" y="1940" width="90" height="120" as="geometry" />
        </mxCell>
        <mxCell id="oBKa0gRB3cMWq6xHX9_Q-9" value="reduction&lt;div&gt;nor&lt;/div&gt;" style="triangle;whiteSpace=wrap;html=1;" vertex="1" parent="WIyWlLk6GJQsqaUBKTNV-1">
          <mxGeometry x="-130" y="2044" width="100" height="130" as="geometry" />
        </mxCell>
        <mxCell id="oBKa0gRB3cMWq6xHX9_Q-23" style="edgeStyle=orthogonalEdgeStyle;rounded=0;orthogonalLoop=1;jettySize=auto;html=1;exitX=1;exitY=0.25;exitDx=0;exitDy=0;entryX=0;entryY=0.75;entryDx=0;entryDy=0;strokeColor=default;align=center;verticalAlign=middle;fontFamily=Helvetica;fontSize=11;fontColor=default;labelBackgroundColor=default;endArrow=classic;" edge="1" parent="WIyWlLk6GJQsqaUBKTNV-1" source="oBKa0gRB3cMWq6xHX9_Q-10" target="oBKa0gRB3cMWq6xHX9_Q-7">
          <mxGeometry relative="1" as="geometry">
            <Array as="points">
              <mxPoint x="-310" y="2270" />
              <mxPoint x="-310" y="2400" />
              <mxPoint x="-760" y="2400" />
              <mxPoint x="-760" y="2730" />
            </Array>
          </mxGeometry>
        </mxCell>
        <mxCell id="oBKa0gRB3cMWq6xHX9_Q-57" style="edgeStyle=orthogonalEdgeStyle;rounded=0;orthogonalLoop=1;jettySize=auto;html=1;exitX=0.5;exitY=0;exitDx=0;exitDy=0;entryX=0.5;entryY=1;entryDx=0;entryDy=0;strokeColor=default;align=center;verticalAlign=middle;fontFamily=Helvetica;fontSize=11;fontColor=default;labelBackgroundColor=default;endArrow=classic;" edge="1" parent="WIyWlLk6GJQsqaUBKTNV-1" source="oBKa0gRB3cMWq6xHX9_Q-10" target="oBKa0gRB3cMWq6xHX9_Q-1">
          <mxGeometry relative="1" as="geometry" />
        </mxCell>
        <mxCell id="oBKa0gRB3cMWq6xHX9_Q-10" value="Register" style="rounded=0;whiteSpace=wrap;html=1;" vertex="1" parent="WIyWlLk6GJQsqaUBKTNV-1">
          <mxGeometry x="-420" y="2249" width="90" height="120" as="geometry" />
        </mxCell>
        <mxCell id="oBKa0gRB3cMWq6xHX9_Q-24" style="edgeStyle=orthogonalEdgeStyle;rounded=0;orthogonalLoop=1;jettySize=auto;html=1;exitX=1;exitY=0.25;exitDx=0;exitDy=0;entryX=0;entryY=0.25;entryDx=0;entryDy=0;strokeColor=default;align=center;verticalAlign=middle;fontFamily=Helvetica;fontSize=11;fontColor=default;labelBackgroundColor=default;endArrow=classic;" edge="1" parent="WIyWlLk6GJQsqaUBKTNV-1" source="oBKa0gRB3cMWq6xHX9_Q-11" target="oBKa0gRB3cMWq6xHX9_Q-6">
          <mxGeometry relative="1" as="geometry" />
        </mxCell>
        <mxCell id="oBKa0gRB3cMWq6xHX9_Q-56" style="edgeStyle=orthogonalEdgeStyle;rounded=0;orthogonalLoop=1;jettySize=auto;html=1;exitX=0.5;exitY=0;exitDx=0;exitDy=0;strokeColor=default;align=center;verticalAlign=middle;fontFamily=Helvetica;fontSize=11;fontColor=default;labelBackgroundColor=default;endArrow=classic;" edge="1" parent="WIyWlLk6GJQsqaUBKTNV-1" source="oBKa0gRB3cMWq6xHX9_Q-11">
          <mxGeometry relative="1" as="geometry">
            <mxPoint x="-374.6666666666665" y="2370" as="targetPoint" />
          </mxGeometry>
        </mxCell>
        <mxCell id="oBKa0gRB3cMWq6xHX9_Q-11" value="Register" style="rounded=0;whiteSpace=wrap;html=1;" vertex="1" parent="WIyWlLk6GJQsqaUBKTNV-1">
          <mxGeometry x="-420" y="2440" width="90" height="120" as="geometry" />
        </mxCell>
        <mxCell id="oBKa0gRB3cMWq6xHX9_Q-22" style="edgeStyle=orthogonalEdgeStyle;rounded=0;orthogonalLoop=1;jettySize=auto;html=1;exitX=1;exitY=0.25;exitDx=0;exitDy=0;entryX=0;entryY=0.25;entryDx=0;entryDy=0;strokeColor=default;align=center;verticalAlign=middle;fontFamily=Helvetica;fontSize=11;fontColor=default;labelBackgroundColor=default;endArrow=classic;" edge="1" parent="WIyWlLk6GJQsqaUBKTNV-1" source="oBKa0gRB3cMWq6xHX9_Q-12" target="oBKa0gRB3cMWq6xHX9_Q-7">
          <mxGeometry relative="1" as="geometry">
            <Array as="points">
              <mxPoint x="-310" y="2670" />
              <mxPoint x="-310" y="2620" />
              <mxPoint x="-725" y="2620" />
              <mxPoint x="-725" y="2670" />
            </Array>
          </mxGeometry>
        </mxCell>
        <mxCell id="oBKa0gRB3cMWq6xHX9_Q-25" style="edgeStyle=orthogonalEdgeStyle;rounded=0;orthogonalLoop=1;jettySize=auto;html=1;exitX=1;exitY=0.25;exitDx=0;exitDy=0;entryX=0;entryY=0.5;entryDx=0;entryDy=0;strokeColor=default;align=center;verticalAlign=middle;fontFamily=Helvetica;fontSize=11;fontColor=default;labelBackgroundColor=default;endArrow=classic;" edge="1" parent="WIyWlLk6GJQsqaUBKTNV-1" source="oBKa0gRB3cMWq6xHX9_Q-12" target="oBKa0gRB3cMWq6xHX9_Q-6">
          <mxGeometry relative="1" as="geometry" />
        </mxCell>
        <mxCell id="oBKa0gRB3cMWq6xHX9_Q-55" style="edgeStyle=orthogonalEdgeStyle;rounded=0;orthogonalLoop=1;jettySize=auto;html=1;exitX=0.5;exitY=0;exitDx=0;exitDy=0;entryX=0.5;entryY=1;entryDx=0;entryDy=0;strokeColor=default;align=center;verticalAlign=middle;fontFamily=Helvetica;fontSize=11;fontColor=default;labelBackgroundColor=default;endArrow=classic;" edge="1" parent="WIyWlLk6GJQsqaUBKTNV-1" source="oBKa0gRB3cMWq6xHX9_Q-12" target="oBKa0gRB3cMWq6xHX9_Q-11">
          <mxGeometry relative="1" as="geometry" />
        </mxCell>
        <mxCell id="oBKa0gRB3cMWq6xHX9_Q-12" value="Register" style="rounded=0;whiteSpace=wrap;html=1;" vertex="1" parent="WIyWlLk6GJQsqaUBKTNV-1">
          <mxGeometry x="-420" y="2640" width="90" height="120" as="geometry" />
        </mxCell>
        <mxCell id="oBKa0gRB3cMWq6xHX9_Q-54" style="edgeStyle=orthogonalEdgeStyle;rounded=0;orthogonalLoop=1;jettySize=auto;html=1;exitX=0.5;exitY=0;exitDx=0;exitDy=0;entryX=0.5;entryY=1;entryDx=0;entryDy=0;strokeColor=default;align=center;verticalAlign=middle;fontFamily=Helvetica;fontSize=11;fontColor=default;labelBackgroundColor=default;endArrow=classic;" edge="1" parent="WIyWlLk6GJQsqaUBKTNV-1" source="oBKa0gRB3cMWq6xHX9_Q-13" target="oBKa0gRB3cMWq6xHX9_Q-12">
          <mxGeometry relative="1" as="geometry" />
        </mxCell>
        <mxCell id="oBKa0gRB3cMWq6xHX9_Q-13" value="Register" style="rounded=0;whiteSpace=wrap;html=1;" vertex="1" parent="WIyWlLk6GJQsqaUBKTNV-1">
          <mxGeometry x="-420" y="2914" width="90" height="120" as="geometry" />
        </mxCell>
        <mxCell id="oBKa0gRB3cMWq6xHX9_Q-18" style="edgeStyle=orthogonalEdgeStyle;rounded=0;orthogonalLoop=1;jettySize=auto;html=1;exitX=1;exitY=0.5;exitDx=0;exitDy=0;entryX=0;entryY=0.65;entryDx=0;entryDy=3;entryPerimeter=0;strokeColor=default;align=center;verticalAlign=middle;fontFamily=Helvetica;fontSize=11;fontColor=default;labelBackgroundColor=default;endArrow=classic;" edge="1" parent="WIyWlLk6GJQsqaUBKTNV-1" source="oBKa0gRB3cMWq6xHX9_Q-3" target="oBKa0gRB3cMWq6xHX9_Q-5">
          <mxGeometry relative="1" as="geometry" />
        </mxCell>
        <mxCell id="oBKa0gRB3cMWq6xHX9_Q-19" style="edgeStyle=orthogonalEdgeStyle;rounded=0;orthogonalLoop=1;jettySize=auto;html=1;exitX=1;exitY=0.5;exitDx=0;exitDy=0;entryX=0;entryY=0.21666666666666667;entryDx=0;entryDy=3;entryPerimeter=0;strokeColor=default;align=center;verticalAlign=middle;fontFamily=Helvetica;fontSize=11;fontColor=default;labelBackgroundColor=default;endArrow=classic;" edge="1" parent="WIyWlLk6GJQsqaUBKTNV-1" source="oBKa0gRB3cMWq6xHX9_Q-8" target="oBKa0gRB3cMWq6xHX9_Q-5">
          <mxGeometry relative="1" as="geometry" />
        </mxCell>
        <mxCell id="oBKa0gRB3cMWq6xHX9_Q-35" style="edgeStyle=orthogonalEdgeStyle;rounded=0;orthogonalLoop=1;jettySize=auto;html=1;exitX=1;exitY=0.5;exitDx=0;exitDy=0;exitPerimeter=0;entryX=0;entryY=0.25;entryDx=0;entryDy=0;strokeColor=default;align=center;verticalAlign=middle;fontFamily=Helvetica;fontSize=11;fontColor=default;labelBackgroundColor=default;endArrow=classic;" edge="1" parent="WIyWlLk6GJQsqaUBKTNV-1" source="oBKa0gRB3cMWq6xHX9_Q-30" target="oBKa0gRB3cMWq6xHX9_Q-3">
          <mxGeometry relative="1" as="geometry" />
        </mxCell>
        <mxCell id="oBKa0gRB3cMWq6xHX9_Q-37" style="edgeStyle=orthogonalEdgeStyle;rounded=0;orthogonalLoop=1;jettySize=auto;html=1;exitX=1;exitY=0.5;exitDx=0;exitDy=0;exitPerimeter=0;entryX=0;entryY=0.25;entryDx=0;entryDy=0;strokeColor=default;align=center;verticalAlign=middle;fontFamily=Helvetica;fontSize=11;fontColor=default;labelBackgroundColor=default;endArrow=classic;" edge="1" parent="WIyWlLk6GJQsqaUBKTNV-1" source="oBKa0gRB3cMWq6xHX9_Q-30" target="oBKa0gRB3cMWq6xHX9_Q-4">
          <mxGeometry relative="1" as="geometry">
            <Array as="points">
              <mxPoint x="-970" y="2135" />
              <mxPoint x="-970" y="2260" />
            </Array>
          </mxGeometry>
        </mxCell>
        <mxCell id="oBKa0gRB3cMWq6xHX9_Q-30" value="&lt;font style=&quot;font-size: 20px;&quot;&gt;inA&lt;/font&gt;" style="html=1;shadow=0;dashed=0;align=center;verticalAlign=middle;shape=mxgraph.arrows2.arrow;dy=0;dx=13.52;notch=0;fontFamily=Helvetica;fontSize=11;fontColor=default;labelBackgroundColor=default;" vertex="1" parent="WIyWlLk6GJQsqaUBKTNV-1">
          <mxGeometry x="-1330" y="2120" width="120" height="30" as="geometry" />
        </mxCell>
        <mxCell id="oBKa0gRB3cMWq6xHX9_Q-36" style="edgeStyle=orthogonalEdgeStyle;rounded=0;orthogonalLoop=1;jettySize=auto;html=1;exitX=1;exitY=0.5;exitDx=0;exitDy=0;exitPerimeter=0;entryX=0;entryY=0.75;entryDx=0;entryDy=0;strokeColor=default;align=center;verticalAlign=middle;fontFamily=Helvetica;fontSize=11;fontColor=default;labelBackgroundColor=default;endArrow=classic;" edge="1" parent="WIyWlLk6GJQsqaUBKTNV-1" source="oBKa0gRB3cMWq6xHX9_Q-33" target="oBKa0gRB3cMWq6xHX9_Q-3">
          <mxGeometry relative="1" as="geometry" />
        </mxCell>
        <mxCell id="oBKa0gRB3cMWq6xHX9_Q-38" style="edgeStyle=orthogonalEdgeStyle;rounded=0;orthogonalLoop=1;jettySize=auto;html=1;exitX=1;exitY=0.5;exitDx=0;exitDy=0;exitPerimeter=0;entryX=0;entryY=0.75;entryDx=0;entryDy=0;strokeColor=default;align=center;verticalAlign=middle;fontFamily=Helvetica;fontSize=11;fontColor=default;labelBackgroundColor=default;endArrow=classic;" edge="1" parent="WIyWlLk6GJQsqaUBKTNV-1" source="oBKa0gRB3cMWq6xHX9_Q-33" target="oBKa0gRB3cMWq6xHX9_Q-4">
          <mxGeometry relative="1" as="geometry">
            <Array as="points">
              <mxPoint x="-1060" y="2265" />
              <mxPoint x="-1060" y="2300" />
            </Array>
          </mxGeometry>
        </mxCell>
        <mxCell id="oBKa0gRB3cMWq6xHX9_Q-33" value="&lt;font style=&quot;font-size: 20px;&quot;&gt;inB&lt;/font&gt;" style="html=1;shadow=0;dashed=0;align=center;verticalAlign=middle;shape=mxgraph.arrows2.arrow;dy=0;dx=13.52;notch=0;fontFamily=Helvetica;fontSize=11;fontColor=default;labelBackgroundColor=default;" vertex="1" parent="WIyWlLk6GJQsqaUBKTNV-1">
          <mxGeometry x="-1330" y="2250" width="120" height="30" as="geometry" />
        </mxCell>
        <mxCell id="oBKa0gRB3cMWq6xHX9_Q-39" style="edgeStyle=orthogonalEdgeStyle;rounded=0;orthogonalLoop=1;jettySize=auto;html=1;exitX=1;exitY=0.5;exitDx=0;exitDy=0;exitPerimeter=0;entryX=0;entryY=0.25;entryDx=0;entryDy=0;strokeColor=default;align=center;verticalAlign=middle;fontFamily=Helvetica;fontSize=11;fontColor=default;labelBackgroundColor=default;endArrow=classic;" edge="1" parent="WIyWlLk6GJQsqaUBKTNV-1" source="oBKa0gRB3cMWq6xHX9_Q-34" target="oBKa0gRB3cMWq6xHX9_Q-11">
          <mxGeometry relative="1" as="geometry" />
        </mxCell>
        <mxCell id="oBKa0gRB3cMWq6xHX9_Q-34" value="&lt;font style=&quot;font-size: 20px;&quot;&gt;inC&lt;/font&gt;" style="html=1;shadow=0;dashed=0;align=center;verticalAlign=middle;shape=mxgraph.arrows2.arrow;dy=0;dx=13.52;notch=0;fontFamily=Helvetica;fontSize=11;fontColor=default;labelBackgroundColor=default;" vertex="1" parent="WIyWlLk6GJQsqaUBKTNV-1">
          <mxGeometry x="-1330" y="2455" width="120" height="30" as="geometry" />
        </mxCell>
        <mxCell id="oBKa0gRB3cMWq6xHX9_Q-40" value="&lt;font style=&quot;font-size: 20px;&quot;&gt;reset_regs&lt;/font&gt;" style="html=1;shadow=0;dashed=0;align=center;verticalAlign=middle;shape=mxgraph.arrows2.arrow;dy=0;dx=13.52;notch=0;fontFamily=Helvetica;fontSize=11;fontColor=default;labelBackgroundColor=default;" vertex="1" parent="WIyWlLk6GJQsqaUBKTNV-1">
          <mxGeometry x="-490" y="3190" width="120" height="30" as="geometry" />
        </mxCell>
        <mxCell id="oBKa0gRB3cMWq6xHX9_Q-44" style="edgeStyle=orthogonalEdgeStyle;rounded=0;orthogonalLoop=1;jettySize=auto;html=1;exitX=1;exitY=0.5;exitDx=0;exitDy=-5;exitPerimeter=0;entryX=0;entryY=0.25;entryDx=0;entryDy=0;strokeColor=default;align=center;verticalAlign=middle;fontFamily=Helvetica;fontSize=11;fontColor=default;labelBackgroundColor=default;endArrow=classic;" edge="1" parent="WIyWlLk6GJQsqaUBKTNV-1" source="oBKa0gRB3cMWq6xHX9_Q-41" target="oBKa0gRB3cMWq6xHX9_Q-13">
          <mxGeometry relative="1" as="geometry" />
        </mxCell>
        <mxCell id="oBKa0gRB3cMWq6xHX9_Q-41" value="Mux" style="shadow=0;dashed=0;align=center;html=1;strokeWidth=1;shape=mxgraph.electrical.abstract.mux2;whiteSpace=wrap;" vertex="1" parent="WIyWlLk6GJQsqaUBKTNV-1">
          <mxGeometry x="-630" y="2890" width="80" height="120" as="geometry" />
        </mxCell>
        <mxCell id="oBKa0gRB3cMWq6xHX9_Q-42" style="edgeStyle=orthogonalEdgeStyle;rounded=0;orthogonalLoop=1;jettySize=auto;html=1;exitX=1;exitY=0.25;exitDx=0;exitDy=0;entryX=0;entryY=0.21666666666666667;entryDx=0;entryDy=3;entryPerimeter=0;strokeColor=default;align=center;verticalAlign=middle;fontFamily=Helvetica;fontSize=11;fontColor=default;labelBackgroundColor=default;endArrow=classic;" edge="1" parent="WIyWlLk6GJQsqaUBKTNV-1" source="oBKa0gRB3cMWq6xHX9_Q-12" target="oBKa0gRB3cMWq6xHX9_Q-41">
          <mxGeometry relative="1" as="geometry" />
        </mxCell>
        <mxCell id="oBKa0gRB3cMWq6xHX9_Q-43" style="edgeStyle=orthogonalEdgeStyle;rounded=0;orthogonalLoop=1;jettySize=auto;html=1;exitX=1;exitY=0.25;exitDx=0;exitDy=0;entryX=0;entryY=0.65;entryDx=0;entryDy=3;entryPerimeter=0;strokeColor=default;align=center;verticalAlign=middle;fontFamily=Helvetica;fontSize=11;fontColor=default;labelBackgroundColor=default;endArrow=classic;" edge="1" parent="WIyWlLk6GJQsqaUBKTNV-1" source="oBKa0gRB3cMWq6xHX9_Q-11" target="oBKa0gRB3cMWq6xHX9_Q-41">
          <mxGeometry relative="1" as="geometry">
            <Array as="points">
              <mxPoint x="-310" y="2470" />
              <mxPoint x="-310" y="2580" />
              <mxPoint x="-800" y="2580" />
              <mxPoint x="-800" y="2971" />
            </Array>
          </mxGeometry>
        </mxCell>
        <mxCell id="oBKa0gRB3cMWq6xHX9_Q-45" value="&lt;font style=&quot;font-size: 20px;&quot;&gt;sel_r1&lt;/font&gt;" style="html=1;shadow=0;dashed=0;align=center;verticalAlign=middle;shape=mxgraph.arrows2.arrow;dy=0;dx=13.52;notch=0;fontFamily=Helvetica;fontSize=11;fontColor=default;labelBackgroundColor=default;" vertex="1" parent="WIyWlLk6GJQsqaUBKTNV-1">
          <mxGeometry x="-1340" y="2660" width="120" height="30" as="geometry" />
        </mxCell>
        <mxCell id="oBKa0gRB3cMWq6xHX9_Q-46" value="&lt;font style=&quot;font-size: 20px;&quot;&gt;en&lt;/font&gt;" style="html=1;shadow=0;dashed=0;align=center;verticalAlign=middle;shape=mxgraph.arrows2.arrow;dy=0;dx=13.52;notch=0;fontFamily=Helvetica;fontSize=11;fontColor=default;labelBackgroundColor=default;" vertex="1" parent="WIyWlLk6GJQsqaUBKTNV-1">
          <mxGeometry x="-490" y="3150" width="120" height="30" as="geometry" />
        </mxCell>
        <mxCell id="oBKa0gRB3cMWq6xHX9_Q-47" value="&lt;font style=&quot;font-size: 20px;&quot;&gt;clk&lt;/font&gt;" style="html=1;shadow=0;dashed=0;align=center;verticalAlign=middle;shape=mxgraph.arrows2.arrow;dy=0;dx=13.52;notch=0;fontFamily=Helvetica;fontSize=11;fontColor=default;labelBackgroundColor=default;" vertex="1" parent="WIyWlLk6GJQsqaUBKTNV-1">
          <mxGeometry x="-490" y="3110" width="120" height="30" as="geometry" />
        </mxCell>
        <mxCell id="oBKa0gRB3cMWq6xHX9_Q-48" value="&lt;font style=&quot;font-size: 20px;&quot;&gt;sel_r5&lt;/font&gt;" style="html=1;shadow=0;dashed=0;align=center;verticalAlign=middle;shape=mxgraph.arrows2.arrow;dy=0;dx=13.52;notch=0;fontFamily=Helvetica;fontSize=11;fontColor=default;labelBackgroundColor=default;" vertex="1" parent="WIyWlLk6GJQsqaUBKTNV-1">
          <mxGeometry x="-1340" y="2838" width="120" height="30" as="geometry" />
        </mxCell>
        <mxCell id="oBKa0gRB3cMWq6xHX9_Q-49" style="edgeStyle=orthogonalEdgeStyle;rounded=0;orthogonalLoop=1;jettySize=auto;html=1;exitX=1;exitY=0.5;exitDx=0;exitDy=0;exitPerimeter=0;entryX=0.375;entryY=1;entryDx=10;entryDy=0;entryPerimeter=0;strokeColor=default;align=center;verticalAlign=middle;fontFamily=Helvetica;fontSize=11;fontColor=default;labelBackgroundColor=default;endArrow=classic;" edge="1" parent="WIyWlLk6GJQsqaUBKTNV-1" source="oBKa0gRB3cMWq6xHX9_Q-45" target="oBKa0gRB3cMWq6xHX9_Q-5">
          <mxGeometry relative="1" as="geometry">
            <Array as="points">
              <mxPoint x="-1070" y="2675" />
              <mxPoint x="-1070" y="2370" />
              <mxPoint x="-730" y="2370" />
              <mxPoint x="-730" y="2140" />
            </Array>
          </mxGeometry>
        </mxCell>
        <mxCell id="oBKa0gRB3cMWq6xHX9_Q-51" style="edgeStyle=orthogonalEdgeStyle;rounded=0;orthogonalLoop=1;jettySize=auto;html=1;exitX=1;exitY=0.5;exitDx=0;exitDy=0;exitPerimeter=0;entryX=0.375;entryY=1;entryDx=10;entryDy=0;entryPerimeter=0;strokeColor=default;align=center;verticalAlign=middle;fontFamily=Helvetica;fontSize=11;fontColor=default;labelBackgroundColor=default;endArrow=classic;" edge="1" parent="WIyWlLk6GJQsqaUBKTNV-1" source="oBKa0gRB3cMWq6xHX9_Q-48" target="oBKa0gRB3cMWq6xHX9_Q-41">
          <mxGeometry relative="1" as="geometry" />
        </mxCell>
        <mxCell id="oBKa0gRB3cMWq6xHX9_Q-53" style="edgeStyle=orthogonalEdgeStyle;rounded=0;orthogonalLoop=1;jettySize=auto;html=1;exitX=1;exitY=0.5;exitDx=0;exitDy=0;exitPerimeter=0;entryX=0.556;entryY=1.004;entryDx=0;entryDy=0;entryPerimeter=0;strokeColor=default;align=center;verticalAlign=middle;fontFamily=Helvetica;fontSize=11;fontColor=default;labelBackgroundColor=default;endArrow=classic;" edge="1" parent="WIyWlLk6GJQsqaUBKTNV-1" source="oBKa0gRB3cMWq6xHX9_Q-40" target="oBKa0gRB3cMWq6xHX9_Q-13">
          <mxGeometry relative="1" as="geometry">
            <Array as="points">
              <mxPoint x="-370" y="3160" />
              <mxPoint x="-370" y="3160" />
            </Array>
          </mxGeometry>
        </mxCell>
        <mxCell id="oBKa0gRB3cMWq6xHX9_Q-59" value="r5" style="html=1;shadow=0;dashed=0;align=center;verticalAlign=middle;shape=mxgraph.arrows2.arrow;dy=0;dx=0;notch=12.85;fontFamily=Helvetica;fontSize=20;fontColor=default;labelBackgroundColor=default;" vertex="1" parent="WIyWlLk6GJQsqaUBKTNV-1">
          <mxGeometry x="70" y="2930" width="130" height="30" as="geometry" />
        </mxCell>
        <mxCell id="oBKa0gRB3cMWq6xHX9_Q-60" style="edgeStyle=orthogonalEdgeStyle;rounded=0;orthogonalLoop=1;jettySize=auto;html=1;exitX=1;exitY=0.25;exitDx=0;exitDy=0;entryX=0;entryY=0.5;entryDx=12.85;entryDy=0;entryPerimeter=0;strokeColor=default;align=center;verticalAlign=middle;fontFamily=Helvetica;fontSize=11;fontColor=default;labelBackgroundColor=default;endArrow=classic;" edge="1" parent="WIyWlLk6GJQsqaUBKTNV-1" source="oBKa0gRB3cMWq6xHX9_Q-13" target="oBKa0gRB3cMWq6xHX9_Q-59">
          <mxGeometry relative="1" as="geometry" />
        </mxCell>
        <mxCell id="oBKa0gRB3cMWq6xHX9_Q-61" value="cmp_res" style="html=1;shadow=0;dashed=0;align=center;verticalAlign=middle;shape=mxgraph.arrows2.arrow;dy=0;dx=0;notch=12.85;fontFamily=Helvetica;fontSize=20;fontColor=default;labelBackgroundColor=default;" vertex="1" parent="WIyWlLk6GJQsqaUBKTNV-1">
          <mxGeometry x="70" y="2544" width="130" height="30" as="geometry" />
        </mxCell>
        <mxCell id="oBKa0gRB3cMWq6xHX9_Q-62" value="nor_res" style="html=1;shadow=0;dashed=0;align=center;verticalAlign=middle;shape=mxgraph.arrows2.arrow;dy=0;dx=0;notch=12.85;fontFamily=Helvetica;fontSize=20;fontColor=default;labelBackgroundColor=default;" vertex="1" parent="WIyWlLk6GJQsqaUBKTNV-1">
          <mxGeometry x="70" y="2094" width="130" height="30" as="geometry" />
        </mxCell>
        <mxCell id="oBKa0gRB3cMWq6xHX9_Q-63" style="edgeStyle=orthogonalEdgeStyle;rounded=0;orthogonalLoop=1;jettySize=auto;html=1;exitX=1;exitY=0.5;exitDx=0;exitDy=0;entryX=0;entryY=0.5;entryDx=12.85;entryDy=0;entryPerimeter=0;strokeColor=default;align=center;verticalAlign=middle;fontFamily=Helvetica;fontSize=11;fontColor=default;labelBackgroundColor=default;endArrow=classic;" edge="1" parent="WIyWlLk6GJQsqaUBKTNV-1" source="oBKa0gRB3cMWq6xHX9_Q-9" target="oBKa0gRB3cMWq6xHX9_Q-62">
          <mxGeometry relative="1" as="geometry" />
        </mxCell>
        <mxCell id="oBKa0gRB3cMWq6xHX9_Q-64" style="edgeStyle=orthogonalEdgeStyle;rounded=0;orthogonalLoop=1;jettySize=auto;html=1;exitX=1;exitY=0.25;exitDx=0;exitDy=0;entryX=0;entryY=0.5;entryDx=12.85;entryDy=0;entryPerimeter=0;strokeColor=default;align=center;verticalAlign=middle;fontFamily=Helvetica;fontSize=11;fontColor=default;labelBackgroundColor=default;endArrow=classic;" edge="1" parent="WIyWlLk6GJQsqaUBKTNV-1" source="oBKa0gRB3cMWq6xHX9_Q-6" target="oBKa0gRB3cMWq6xHX9_Q-61">
          <mxGeometry relative="1" as="geometry" />
        </mxCell>
      </root>
    </mxGraphModel>
  </diagram>
</mxfile>
